<svg xmlns="http://www.w3.org/2000/svg" xmlns:xlink="http://www.w3.org/1999/xlink" width="1920" zoomAndPan="magnify" viewBox="0 0 1440 809.999993" height="1080" preserveAspectRatio="xMidYMid meet" version="1.0"><defs><clipPath id="c1f819e651"><path d="M 549.898438 0 L 890.398438 0 L 890.398438 810 L 549.898438 810 Z M 549.898438 0 " clip-rule="nonzero"/></clipPath></defs><g clip-path="url(#c1f819e651)"><path fill="#000000" d="M 720.152344 212.964844 C 778.921875 212.964844 826.730469 165.199219 826.730469 106.488281 C 826.730469 47.777344 778.921875 0.00390625 720.152344 0.00390625 C 661.386719 0.00390625 613.574219 47.777344 613.574219 106.488281 C 613.574219 165.199219 661.386719 212.964844 720.152344 212.964844 Z M 720.152344 27.003906 C 764.011719 27.003906 799.707031 62.660156 799.707031 106.488281 C 799.707031 150.308594 764.011719 185.964844 720.152344 185.964844 C 676.285156 185.964844 640.597656 150.308594 640.597656 106.488281 C 640.597656 62.660156 676.285156 27.003906 720.152344 27.003906 Z M 849.953125 244.691406 L 590.351562 244.691406 C 568.042969 244.691406 549.898438 262.816406 549.898438 285.101562 L 549.898438 532.234375 C 549.898438 538.257812 553.898438 543.558594 559.699219 545.21875 L 618.476562 561.988281 L 618.476562 796.496094 C 618.476562 803.957031 624.527344 809.996094 631.988281 809.996094 L 808.320312 809.996094 C 815.789062 809.996094 821.832031 803.957031 821.832031 796.496094 L 821.832031 561.988281 L 880.589844 545.21875 C 886.398438 543.558594 890.394531 538.257812 890.394531 532.234375 L 890.394531 285.101562 C 890.394531 262.816406 872.253906 244.691406 849.953125 244.691406 Z M 863.371094 522.054688 L 804.613281 538.824219 C 798.808594 540.484375 794.808594 545.785156 794.808594 551.8125 L 794.808594 782.996094 L 645.5 782.996094 L 645.5 551.808594 C 645.5 545.785156 641.5 540.484375 635.703125 538.824219 L 576.925781 522.054688 L 576.925781 285.101562 C 576.925781 277.707031 582.949219 271.691406 590.351562 271.691406 L 849.953125 271.691406 C 857.355469 271.691406 863.371094 277.707031 863.371094 285.101562 Z M 808.320312 371.921875 L 763.050781 371.921875 L 763.050781 326.703125 C 763.050781 319.25 757.003906 313.203125 749.535156 313.203125 L 690.765625 313.203125 C 683.304688 313.203125 677.253906 319.25 677.253906 326.703125 L 677.253906 371.921875 L 631.988281 371.921875 C 624.527344 371.921875 618.476562 377.960938 618.476562 385.421875 L 618.476562 444.15625 C 618.476562 451.617188 624.527344 457.65625 631.988281 457.65625 L 677.253906 457.65625 L 677.253906 502.875 C 677.253906 510.335938 683.304688 516.375 690.765625 516.375 L 749.535156 516.375 C 757.003906 516.375 763.046875 510.335938 763.046875 502.875 L 763.046875 457.65625 L 808.320312 457.65625 C 815.789062 457.65625 821.832031 451.617188 821.832031 444.15625 L 821.832031 385.421875 C 821.832031 377.960938 815.789062 371.921875 808.320312 371.921875 Z M 794.808594 430.65625 L 749.535156 430.65625 C 742.070312 430.65625 736.023438 436.691406 736.023438 444.15625 L 736.023438 489.375 L 704.277344 489.375 L 704.277344 444.15625 C 704.277344 436.691406 698.226562 430.65625 690.765625 430.65625 L 645.5 430.65625 L 645.5 398.921875 L 690.765625 398.921875 C 698.226562 398.921875 704.277344 392.882812 704.277344 385.421875 L 704.277344 340.203125 L 736.023438 340.203125 L 736.023438 385.421875 C 736.023438 392.882812 742.070312 398.921875 749.535156 398.921875 L 794.808594 398.921875 Z M 794.808594 430.65625 " fill-opacity="1" fill-rule="nonzero"/></g></svg>