<svg xmlns="http://www.w3.org/2000/svg" xmlns:xlink="http://www.w3.org/1999/xlink" width="1920" zoomAndPan="magnify" viewBox="0 0 1440 809.999993" height="1080" preserveAspectRatio="xMidYMid meet" version="1.0"><defs><clipPath id="a06179aae8"><path d="M 827 227 L 1358 227 L 1358 724.144531 L 827 724.144531 Z M 827 227 " clip-rule="nonzero"/></clipPath><clipPath id="55512c98cd"><path d="M 147 82.144531 L 1259 82.144531 L 1259 724.144531 L 147 724.144531 Z M 147 82.144531 " clip-rule="nonzero"/></clipPath><clipPath id="91a825c91f"><path d="M 80 85 L 716 85 L 716 750 L 80 750 Z M 80 85 " clip-rule="nonzero"/></clipPath><clipPath id="b05a62e4e4"><path d="M 627.378906 0 L 794.9375 630.621094 L 142.570312 803.953125 L -24.984375 173.335938 Z M 627.378906 0 " clip-rule="nonzero"/></clipPath><clipPath id="2ace81ff3e"><path d="M 794.871094 630.371094 L 627.3125 -0.25 L -25.050781 173.085938 L 142.503906 803.703125 Z M 794.871094 630.371094 " clip-rule="nonzero"/></clipPath><clipPath id="a33baeb44a"><path d="M 64 121 L 730 121 L 730 739 L 64 739 Z M 64 121 " clip-rule="nonzero"/></clipPath><clipPath id="5d04cb1d41"><path d="M 92.738281 770.664062 L -43.210938 207.078125 L 645.773438 40.878906 L 781.726562 604.460938 Z M 92.738281 770.664062 " clip-rule="nonzero"/></clipPath><clipPath id="29ad00707b"><path d="M 92.738281 770.664062 L -43.210938 207.078125 L 645.773438 40.878906 L 781.726562 604.460938 Z M 92.738281 770.664062 " clip-rule="nonzero"/></clipPath><clipPath id="9f86b81a4a"><path d="M 93.164062 770.5625 L -43.074219 205.800781 L 645.457031 39.707031 L 781.695312 604.46875 Z M 93.164062 770.5625 " clip-rule="nonzero"/></clipPath><clipPath id="5909fddeeb"><path d="M 93.164062 770.5625 L -42.773438 207.042969 L 645.363281 41.042969 L 781.300781 604.5625 Z M 93.164062 770.5625 " clip-rule="nonzero"/></clipPath><clipPath id="ad12e2f3d1"><path d="M 219 1.203125 L 480 1.203125 L 480 809.703125 L 219 809.703125 Z M 219 1.203125 " clip-rule="nonzero"/></clipPath></defs><g clip-path="url(#a06179aae8)"><path fill="#fafafa" d="M 1349.875 460.757812 C 1342.300781 415.65625 1331.765625 373.84375 1318.265625 335.652344 C 1310.035156 308.324219 1297.195312 281.988281 1286.660156 261.902344 L 1286.988281 261.574219 C 1280.730469 250.050781 1273.816406 238.859375 1266.902344 228.652344 C 1266.246094 227.664062 1265.585938 227.003906 1265.585938 227.003906 L 1235.953125 256.636719 L 985.0625 507.511719 C 978.148438 504.546875 970.574219 502.902344 962.34375 502.902344 C 953.125 502.902344 944.566406 504.875 936.992188 508.828125 C 922.175781 501.585938 899.785156 493.683594 875.09375 493.351562 L 886.617188 473.929688 L 827.679688 532.859375 L 870.8125 532.859375 C 872.789062 532.859375 874.765625 532.859375 876.738281 533.191406 C 882.996094 533.847656 889.910156 534.835938 896.164062 536.152344 C 896.496094 536.152344 897.152344 536.484375 897.480469 536.484375 C 901.105469 537.46875 905.054688 538.457031 908.675781 539.445312 C 906.042969 546.03125 904.394531 553.273438 904.394531 560.84375 C 904.394531 592.78125 930.40625 618.789062 962.34375 618.789062 C 994.28125 618.789062 1020.292969 592.78125 1020.292969 560.84375 C 1020.292969 551.296875 1017.988281 542.410156 1014.039062 534.507812 L 1256.695312 291.863281 C 1269.867188 318.53125 1280.074219 346.515625 1282.707031 353.429688 C 1294.890625 388.328125 1304.4375 426.191406 1311.023438 467.34375 C 1325.511719 554.589844 1318.265625 616.816406 1289.949219 651.714844 C 1273.160156 672.453125 1247.808594 683.648438 1214.882812 684.964844 C 1180.640625 686.28125 1146.726562 676.40625 1117.753906 657.308594 L 1089.4375 685.625 C 1124.335938 710.976562 1166.152344 724.472656 1208.296875 724.472656 C 1210.929688 724.472656 1213.894531 724.472656 1216.527344 724.144531 C 1261.304688 722.167969 1296.207031 706.035156 1320.570312 676.078125 C 1356.460938 632.289062 1366.335938 559.527344 1349.875 460.757812 Z M 1349.875 460.757812 " fill-opacity="1" fill-rule="nonzero"/></g><g clip-path="url(#55512c98cd)"><path fill="#fafafa" d="M 1168.785156 175.316406 C 1174.382812 179.925781 1177.347656 183.21875 1177.347656 183.21875 C 1180.96875 186.511719 1184.589844 190.132812 1188.210938 193.425781 C 1201.710938 206.921875 1213.894531 221.738281 1225.417969 238.199219 L 1214.222656 261.574219 L 1230.355469 245.441406 L 1258.671875 217.128906 C 1245.5 198.035156 1231.015625 180.914062 1215.539062 165.441406 C 1211.917969 161.816406 1208.296875 158.527344 1204.675781 155.234375 C 1202.039062 152.269531 1199.40625 149.636719 1196.773438 147.003906 C 1186.894531 137.785156 1176.359375 129.554688 1165.164062 122.640625 L 1135.53125 152.269531 L 795.414062 493.023438 L 683.796875 493.023438 L 1047.292969 122.308594 C 1073.304688 124.613281 1099.972656 132.84375 1125.652344 146.671875 L 1154.628906 117.699219 L 1173.394531 98.933594 L 1147.714844 113.421875 C 1110.835938 93.007812 1071.984375 82.144531 1034.121094 82.144531 C 1012.0625 82.144531 991.648438 86.09375 974.855469 93.339844 C 889.25 130.542969 808.253906 151.941406 752.609375 151.941406 C 696.96875 151.941406 615.972656 130.539062 530.367188 93.339844 C 513.246094 86.09375 492.832031 82.144531 470.769531 82.144531 C 408.214844 82.144531 341.703125 112.433594 288.695312 165.769531 C 257.085938 197.375 229.757812 236.554688 208.027344 282.644531 C 183.664062 334.003906 165.554688 393.925781 154.6875 460.757812 C 138.554688 559.859375 148.433594 632.289062 184.320312 676.40625 C 208.6875 706.367188 243.585938 722.496094 288.367188 724.472656 C 291 724.472656 293.632812 724.800781 296.597656 724.800781 C 344.339844 724.800781 391.421875 707.351562 428.957031 675.417969 L 567.902344 557.554688 C 586.339844 541.75 609.714844 533.191406 634.082031 533.191406 L 756.234375 533.191406 L 730.550781 558.871094 C 723.964844 556.238281 716.722656 554.917969 709.148438 554.917969 C 677.210938 554.917969 651.203125 580.929688 651.203125 612.863281 C 651.203125 644.800781 677.210938 670.808594 709.148438 670.808594 C 741.085938 670.808594 767.097656 644.800781 767.097656 612.863281 C 767.097656 602.65625 764.464844 593.441406 760.183594 585.207031 Z M 567.902344 358.699219 C 567.902344 365.28125 562.632812 370.550781 556.046875 370.550781 L 506.660156 370.550781 C 500.074219 370.550781 494.808594 375.816406 494.808594 382.402344 L 494.808594 431.789062 C 494.808594 438.371094 489.539062 443.640625 482.953125 443.640625 L 437.847656 443.640625 C 431.261719 443.640625 425.992188 438.371094 425.992188 431.789062 L 425.992188 382.402344 C 425.992188 375.816406 420.726562 370.550781 414.140625 370.550781 L 364.753906 370.550781 C 358.167969 370.550781 352.898438 365.28125 352.898438 358.699219 L 352.898438 313.59375 C 352.898438 307.007812 358.167969 301.742188 364.753906 301.742188 L 414.140625 301.742188 C 420.726562 301.742188 425.992188 296.472656 425.992188 289.890625 L 425.992188 240.175781 C 425.992188 233.589844 431.261719 228.324219 437.847656 228.324219 L 482.953125 228.324219 C 489.539062 228.324219 494.804688 233.589844 494.804688 240.175781 L 494.804688 289.558594 C 494.804688 296.144531 500.074219 301.410156 506.660156 301.410156 L 556.046875 301.410156 C 562.632812 301.410156 567.902344 306.679688 567.902344 313.265625 Z M 567.902344 358.699219 " fill-opacity="1" fill-rule="nonzero"/></g><path fill="#fafafa" d="M 1108.863281 649.738281 L 1179.652344 578.953125 C 1186.238281 581.585938 1193.480469 582.902344 1201.054688 582.902344 C 1232.992188 582.902344 1259 556.894531 1259 524.960938 C 1259 493.023438 1232.992188 467.015625 1201.054688 467.015625 C 1169.117188 467.015625 1143.105469 493.023438 1143.105469 524.960938 C 1143.105469 534.835938 1145.738281 544.382812 1150.019531 552.613281 L 1078.242188 624.386719 L 1028.523438 582.902344 C 1024.246094 595.742188 1016.011719 606.9375 1005.804688 615.167969 L 1041.035156 645.128906 L 1073.304688 672.453125 L 1048.9375 709.328125 L 1080.21875 678.382812 L 1082.851562 675.746094 Z M 1108.863281 649.738281 " fill-opacity="1" fill-rule="nonzero"/><g clip-path="url(#91a825c91f)"><g clip-path="url(#b05a62e4e4)"><g clip-path="url(#2ace81ff3e)"><path fill="#fafafa" d="M 319.90625 85.734375 C 387.917969 80.867188 454.292969 101.71875 515.6875 129.453125 C 569.839844 153.96875 621.113281 186.472656 660.238281 231.796875 C 679.253906 253.699219 698.089844 279.125 707.128906 306.871094 C 716.136719 334.492188 718.074219 364.269531 713.617188 392.964844 C 709.261719 422.050781 697.929688 450.488281 680.597656 474.128906 C 661.070312 500.992188 634.105469 520.246094 607.664062 539.914062 C 547.570312 584.503906 498.273438 641.511719 438.3125 686.621094 C 385.3125 726.546875 320.734375 756.347656 252.691406 748.027344 C 187.777344 739.988281 139.425781 693.921875 111.941406 636.476562 C 80.71875 570.714844 75.726562 495.480469 85.21875 424.039062 C 89.863281 388.207031 98.132812 352.941406 107.90625 318.109375 C 117.652344 283.703125 127.753906 249.0625 140.871094 215.839844 C 152.730469 185.734375 168.792969 157.84375 193.382812 136.445312 C 216.71875 116.070312 245.128906 101.714844 275.023438 93.492188 C 289.910156 89.398438 304.984375 87.0625 319.90625 85.734375 " fill-opacity="1" fill-rule="nonzero"/></g></g></g><g clip-path="url(#a33baeb44a)"><g clip-path="url(#5d04cb1d41)"><g clip-path="url(#29ad00707b)"><g clip-path="url(#9f86b81a4a)"><g clip-path="url(#5909fddeeb)"><path fill="#003399" d="M 706.179688 348.613281 C 693.984375 325.695312 672.390625 300.339844 648.238281 280.570312 C 644.773438 277.734375 636.285156 271.828125 629.378906 267.449219 C 612.878906 256.988281 559.453125 227.175781 532.261719 213.253906 C 520.394531 207.179688 500.792969 196.460938 488.699219 189.441406 C 476.609375 182.421875 459.824219 173.25 451.40625 169.066406 C 421.875 154.394531 380.554688 138.601562 360.863281 134.464844 C 340.292969 130.144531 312.929688 131.195312 288.144531 137.261719 C 266.191406 142.632812 251.789062 149.863281 233.265625 164.796875 C 200.585938 191.144531 157.726562 254.328125 128.019531 319.964844 C 117.839844 342.449219 106.476562 369.695312 102.539062 381.042969 C 98.519531 392.636719 91.867188 419.515625 90.234375 430.753906 C 83.882812 474.457031 74.773438 601.128906 75.289062 638.5 C 75.632812 663.363281 83.496094 682.511719 99.660156 697.820312 C 108.039062 705.757812 128.625 717.707031 140.011719 721.242188 C 177.136719 732.78125 229.75 730.652344 277.835938 715.675781 C 321.152344 702.183594 368.671875 683.613281 417.816406 660.992188 C 524.539062 611.847656 560.242188 592.082031 618.476562 549.90625 C 669.121094 513.222656 694.972656 485.4375 709.324219 452.273438 C 716.542969 435.605469 720.5625 413.441406 719.667969 395.273438 C 719.03125 382.367188 712.960938 361.335938 706.1875 348.609375 Z M 728.808594 389.675781 C 731.074219 409.515625 726.636719 437.078125 717.976562 456.925781 C 709.199219 477.042969 692.21875 500.175781 671.832031 519.800781 C 645.082031 545.546875 576.839844 592.941406 532.269531 616.730469 C 498.164062 634.941406 420.597656 671.839844 382.605469 687.9375 C 365.800781 695.0625 327.761719 709.484375 300.066406 719.234375 C 283.050781 725.226562 238.625 735.941406 225.964844 737.109375 C 172.71875 742.027344 136.71875 736.136719 108.566406 717.902344 C 78.9375 698.710938 64.746094 673.375 64.269531 638.804688 C 64.015625 620.441406 67.507812 552.828125 70.347656 521.25 C 76.441406 453.269531 80.605469 423.253906 86.386719 405.472656 C 87.390625 402.382812 88.800781 396.261719 89.515625 391.863281 C 92.375 374.230469 117.953125 313.816406 138.792969 275.476562 C 159.484375 237.402344 174.296875 214.878906 196.773438 187.292969 C 215.761719 163.996094 237.800781 146.128906 260.277344 135.824219 C 272.875 130.042969 301.566406 123.410156 318.472656 122.363281 C 346.839844 120.605469 365.324219 123.679688 397.265625 135.457031 C 435.324219 149.496094 452.566406 157.636719 491.648438 180.03125 C 505.726562 188.097656 525.660156 199.003906 535.945312 204.269531 C 584.535156 229.160156 641.277344 262.144531 654.863281 273.40625 C 681.964844 295.871094 707.066406 326.421875 717.710938 349.90625 C 722.136719 359.667969 727.632812 379.355469 728.808594 389.675781 " fill-opacity="1" fill-rule="nonzero"/></g></g></g></g></g><g clip-path="url(#ad12e2f3d1)"><path fill="#0075c4" d="M 346.652344 792.335938 C 347.214844 793.636719 347.867188 794.882812 348.609375 796.085938 C 349.355469 797.289062 350.183594 798.429688 351.097656 799.507812 C 352.011719 800.585938 352.996094 801.59375 354.058594 802.527344 C 355.121094 803.464844 356.242188 804.316406 357.429688 805.085938 C 358.617188 805.855469 359.855469 806.53125 361.140625 807.121094 C 362.425781 807.707031 363.75 808.199219 365.109375 808.589844 C 366.46875 808.984375 367.847656 809.277344 369.25 809.464844 C 370.652344 809.65625 372.058594 809.742188 373.472656 809.726562 C 374.300781 809.726562 375.132812 809.695312 375.976562 809.628906 C 377.574219 809.527344 379.152344 809.300781 380.714844 808.949219 C 382.273438 808.597656 383.800781 808.128906 385.289062 807.539062 C 386.773438 806.949219 388.207031 806.246094 389.582031 805.429688 C 390.960938 804.613281 392.265625 803.695312 393.496094 802.675781 C 394.730469 801.65625 395.875 800.542969 396.929688 799.34375 C 397.988281 798.144531 398.945312 796.867188 399.800781 795.515625 C 400.65625 794.164062 401.402344 792.753906 402.035156 791.285156 C 402.667969 789.816406 403.183594 788.308594 403.582031 786.761719 C 404.238281 784.1875 405.023438 781.652344 405.9375 779.15625 C 406.851562 776.660156 407.890625 774.21875 409.050781 771.832031 C 410.210938 769.441406 411.492188 767.117188 412.890625 764.855469 C 414.289062 762.597656 415.796875 760.414062 417.417969 758.304688 C 419.035156 756.199219 420.757812 754.179688 422.582031 752.246094 C 424.40625 750.3125 426.324219 748.476562 428.335938 746.738281 C 430.34375 745 432.4375 743.367188 434.613281 741.84375 C 436.792969 740.316406 439.039062 738.902344 441.359375 737.605469 C 444.6875 735.605469 447.789062 733.300781 450.664062 730.691406 C 453.542969 728.082031 456.132812 725.21875 458.445312 722.097656 C 460.753906 718.976562 462.738281 715.664062 464.394531 712.152344 C 466.050781 708.644531 467.351562 705.003906 468.289062 701.238281 C 471.636719 687.84375 474.007812 674.277344 475.402344 660.542969 C 480.136719 627.242188 481.09375 593.832031 478.277344 560.3125 C 478.277344 560.175781 478.222656 560.050781 478.203125 559.90625 C 478.152344 559.363281 478.054688 558.828125 477.914062 558.296875 C 477.792969 557.917969 477.648438 557.542969 477.484375 557.175781 C 477.378906 556.917969 477.300781 556.65625 477.175781 556.394531 C 476.925781 555.925781 476.644531 555.480469 476.328125 555.054688 C 476.242188 554.933594 476.179688 554.796875 476.082031 554.683594 C 475.207031 553.558594 474.144531 552.65625 472.894531 551.964844 C 472.296875 551.636719 471.675781 551.367188 471.023438 551.164062 C 470.933594 551.136719 470.839844 551.128906 470.746094 551.101562 C 470.191406 550.933594 469.628906 550.8125 469.054688 550.742188 C 467.675781 550.585938 466.324219 550.699219 464.988281 551.074219 C 464.773438 551.136719 464.578125 551.238281 464.363281 551.316406 C 463.929688 551.457031 463.503906 551.625 463.09375 551.824219 C 462.832031 551.960938 462.585938 552.144531 462.332031 552.304688 C 462 552.492188 461.683594 552.699219 461.375 552.921875 C 460.914062 553.296875 460.484375 553.707031 460.089844 554.152344 C 460.03125 554.21875 459.953125 554.269531 459.894531 554.339844 C 436.332031 581.941406 389.59375 580.425781 371.152344 578.597656 C 370.398438 571.523438 369.472656 564.546875 368.378906 557.667969 L 369.003906 557.492188 C 370.132812 557.171875 371.277344 557.113281 372.433594 557.304688 C 373.589844 557.5 374.652344 557.929688 375.613281 558.597656 L 379.9375 561.585938 C 380.5 561.984375 381.097656 562.324219 381.730469 562.609375 C 382.363281 562.890625 383.015625 563.105469 383.691406 563.257812 C 384.367188 563.410156 385.050781 563.496094 385.742188 563.511719 C 386.4375 563.527344 387.121094 563.476562 387.804688 563.355469 C 388.488281 563.234375 389.148438 563.050781 389.792969 562.800781 C 390.441406 562.546875 391.054688 562.234375 391.636719 561.863281 C 392.21875 561.488281 392.757812 561.0625 393.257812 560.582031 C 393.753906 560.101562 394.199219 559.578125 394.59375 559.007812 C 394.988281 558.4375 395.324219 557.835938 395.597656 557.199219 C 395.871094 556.566406 396.078125 555.910156 396.222656 555.234375 C 396.367188 554.558594 396.441406 553.871094 396.449219 553.179688 C 396.457031 552.488281 396.398438 551.804688 396.269531 551.125 C 396.140625 550.445312 395.945312 549.785156 395.6875 549.144531 C 395.425781 548.503906 395.105469 547.894531 394.726562 547.316406 C 394.34375 546.738281 393.910156 546.203125 393.421875 545.710938 C 392.933594 545.21875 392.40625 544.78125 391.832031 544.394531 L 387.523438 541.421875 C 385.78125 540.21875 383.933594 539.214844 381.972656 538.417969 C 380.011719 537.621094 377.988281 537.050781 375.902344 536.699219 C 373.8125 536.351562 371.710938 536.230469 369.597656 536.347656 C 367.484375 536.460938 365.410156 536.804688 363.371094 537.378906 L 353.679688 540.089844 C 353.570312 540.121094 353.472656 540.175781 353.367188 540.210938 C 353.257812 540.246094 353.179688 540.246094 353.089844 540.273438 L 333.742188 546.941406 C 332.9375 547.21875 332.179688 547.585938 331.464844 548.046875 C 330.753906 548.507812 330.105469 549.050781 329.523438 549.667969 C 328.941406 550.289062 328.445312 550.96875 328.027344 551.707031 C 327.613281 552.449219 327.292969 553.230469 327.066406 554.046875 C 325.105469 561.175781 321.1875 562.929688 320.53125 563.191406 C 314.1875 564.992188 308.976562 564.054688 305.042969 560.410156 C 304.003906 559.421875 303.101562 558.324219 302.328125 557.117188 C 301.554688 555.910156 300.933594 554.628906 300.472656 553.273438 C 300.007812 551.917969 299.710938 550.523438 299.582031 549.097656 C 299.457031 547.671875 299.5 546.25 299.714844 544.832031 C 301.449219 536.421875 305.503906 535.292969 309.546875 535.46875 C 316.761719 535.765625 323.859375 534.992188 330.84375 533.144531 C 338.230469 531 345.4375 528.371094 352.46875 525.253906 C 353.046875 524.996094 353.597656 524.691406 354.117188 524.335938 C 354.640625 523.980469 355.125 523.578125 355.574219 523.136719 C 356.023438 522.691406 356.429688 522.210938 356.792969 521.695312 C 357.15625 521.179688 357.46875 520.632812 357.730469 520.058594 C 357.992188 519.484375 358.203125 518.894531 358.359375 518.28125 C 358.515625 517.671875 358.613281 517.050781 358.65625 516.421875 C 358.703125 515.789062 358.6875 515.160156 358.617188 514.535156 C 358.546875 513.90625 358.421875 513.292969 358.238281 512.6875 C 358.097656 512.226562 357.9375 511.785156 357.796875 511.328125 C 363.757812 511.996094 369.738281 512.332031 375.738281 512.335938 C 396.902344 512.335938 423.871094 508.007812 446.933594 490.796875 C 448.964844 500.261719 450.890625 510.40625 452.585938 521.128906 C 452.683594 521.738281 452.832031 522.332031 453.035156 522.917969 C 453.234375 523.5 453.488281 524.0625 453.789062 524.597656 C 454.089844 525.136719 454.4375 525.644531 454.828125 526.121094 C 455.21875 526.601562 455.648438 527.039062 456.117188 527.441406 C 456.585938 527.839844 457.089844 528.199219 457.621094 528.511719 C 458.152344 528.824219 458.707031 529.085938 459.289062 529.300781 C 459.867188 529.515625 460.460938 529.675781 461.066406 529.785156 C 461.675781 529.894531 462.289062 529.949219 462.90625 529.949219 C 463.457031 529.949219 464.003906 529.90625 464.550781 529.820312 C 465.230469 529.714844 465.890625 529.542969 466.535156 529.304688 C 467.179688 529.066406 467.792969 528.769531 468.378906 528.414062 C 468.964844 528.054688 469.511719 527.640625 470.015625 527.175781 C 470.519531 526.710938 470.976562 526.199219 471.378906 525.644531 C 471.78125 525.089844 472.128906 524.5 472.414062 523.878906 C 472.703125 523.253906 472.929688 522.609375 473.089844 521.941406 C 473.25 521.277344 473.34375 520.597656 473.371094 519.914062 C 473.398438 519.226562 473.355469 518.546875 473.25 517.867188 C 470.375 499.75 466.875 483.222656 463.3125 468.757812 L 463.28125 468.621094 C 457.925781 446.921875 452.441406 429.9375 448.820312 419.617188 C 445.886719 411.425781 443.414062 403.097656 441.390625 394.636719 C 435.351562 368.355469 431.625 341.753906 430.207031 314.828125 C 428.789062 287.902344 429.703125 261.058594 432.949219 234.289062 C 432.949219 234.230469 432.949219 234.179688 432.949219 234.125 C 432.976562 233.738281 432.984375 233.351562 432.96875 232.960938 C 432.96875 232.632812 432.96875 232.300781 432.945312 231.980469 C 432.945312 231.914062 432.945312 231.847656 432.945312 231.777344 C 432.910156 231.519531 432.820312 231.257812 432.765625 230.996094 C 432.707031 230.636719 432.625 230.285156 432.523438 229.933594 C 432.414062 229.601562 432.28125 229.277344 432.132812 228.957031 C 432.007812 228.664062 431.890625 228.363281 431.738281 228.082031 C 431.550781 227.757812 431.351562 227.445312 431.128906 227.144531 C 430.964844 226.898438 430.804688 226.652344 430.609375 226.425781 C 430.363281 226.136719 430.101562 225.863281 429.824219 225.605469 C 429.617188 225.402344 429.414062 225.195312 429.191406 225.007812 C 428.886719 224.769531 428.574219 224.546875 428.246094 224.34375 C 428.007812 224.1875 427.78125 224.027344 427.53125 223.890625 C 427.160156 223.699219 426.78125 223.53125 426.394531 223.382812 C 426.152344 223.289062 425.921875 223.179688 425.675781 223.105469 C 425.246094 222.976562 424.808594 222.878906 424.367188 222.8125 C 424.171875 222.777344 423.988281 222.707031 423.789062 222.683594 C 423.734375 222.683594 423.683594 222.683594 423.632812 222.683594 C 423.257812 222.65625 422.882812 222.652344 422.507812 222.664062 C 422.148438 222.664062 421.789062 222.664062 421.4375 222.695312 C 421.382812 222.695312 421.332031 222.695312 421.277344 222.695312 C 369.082031 229.199219 340.289062 216.945312 329.308594 210.574219 C 330.878906 205.609375 332.496094 200.644531 334.242188 195.753906 C 334.242188 195.738281 334.46875 195.128906 334.863281 194.066406 L 341.066406 197.074219 C 341.6875 197.375 342.328125 197.609375 342.992188 197.785156 C 343.65625 197.957031 344.332031 198.066406 345.015625 198.105469 C 345.703125 198.144531 346.386719 198.117188 347.066406 198.023438 C 347.746094 197.929688 348.410156 197.769531 349.0625 197.546875 C 349.710938 197.320312 350.332031 197.035156 350.921875 196.6875 C 351.515625 196.34375 352.070312 195.941406 352.582031 195.484375 C 353.097656 195.027344 353.558594 194.527344 353.976562 193.980469 C 354.390625 193.433594 354.746094 192.851562 355.046875 192.234375 C 355.347656 191.617188 355.582031 190.976562 355.757812 190.3125 C 355.929688 189.648438 356.039062 188.972656 356.078125 188.285156 C 356.117188 187.601562 356.089844 186.917969 355.996094 186.238281 C 355.902344 185.558594 355.742188 184.894531 355.519531 184.246094 C 355.292969 183.597656 355.007812 182.976562 354.660156 182.386719 C 354.3125 181.792969 353.910156 181.242188 353.453125 180.726562 C 353 180.214844 352.496094 179.75 351.949219 179.335938 C 351.402344 178.921875 350.820312 178.566406 350.199219 178.265625 L 333.730469 170.3125 L 323.5 165.253906 C 322.738281 164.878906 321.941406 164.597656 321.113281 164.414062 C 320.28125 164.230469 319.441406 164.148438 318.589844 164.171875 C 317.742188 164.195312 316.90625 164.316406 316.085938 164.542969 C 315.265625 164.765625 314.484375 165.085938 313.742188 165.503906 C 307.40625 169.046875 303.480469 167.539062 302.84375 167.253906 C 297.195312 164.058594 294.246094 159.765625 294.082031 154.492188 C 294.058594 153.082031 294.203125 151.6875 294.511719 150.3125 C 294.824219 148.9375 295.292969 147.617188 295.925781 146.355469 C 296.554688 145.09375 297.324219 143.921875 298.238281 142.84375 C 299.152344 141.769531 300.179688 140.816406 301.320312 139.988281 C 308.394531 135.398438 311.90625 137.464844 314.65625 140.378906 C 319.46875 145.679688 324.960938 150.144531 331.128906 153.777344 C 333.21875 154.96875 335.488281 156.175781 337.898438 157.371094 C 338.527344 157.683594 339.183594 157.929688 339.863281 158.109375 C 340.542969 158.292969 341.234375 158.402344 341.9375 158.441406 C 342.640625 158.484375 343.339844 158.453125 344.035156 158.355469 C 344.734375 158.253906 345.410156 158.085938 346.074219 157.847656 C 346.738281 157.613281 347.367188 157.3125 347.96875 156.949219 C 348.570312 156.582031 349.132812 156.164062 349.648438 155.683594 C 350.164062 155.207031 350.628906 154.683594 351.039062 154.113281 C 351.449219 153.542969 351.800781 152.9375 352.089844 152.296875 C 352.296875 151.832031 352.507812 151.386719 352.71875 150.925781 C 357.84375 154.410156 363.179688 157.535156 368.726562 160.304688 C 374.273438 163.070312 379.980469 165.453125 385.847656 167.449219 C 391.71875 169.445312 397.695312 171.039062 403.777344 172.230469 C 409.863281 173.421875 416 174.199219 422.1875 174.5625 C 420.785156 180.605469 419.421875 186.882812 418.148438 193.460938 C 418.007812 194.136719 417.929688 194.824219 417.925781 195.515625 C 417.917969 196.210938 417.980469 196.898438 418.109375 197.578125 C 418.242188 198.257812 418.4375 198.921875 418.699219 199.5625 C 418.960938 200.203125 419.285156 200.8125 419.667969 201.390625 C 420.054688 201.96875 420.488281 202.503906 420.980469 202.996094 C 421.46875 203.484375 422.003906 203.921875 422.582031 204.308594 C 423.160156 204.691406 423.769531 205.015625 424.410156 205.277344 C 425.050781 205.542969 425.714844 205.738281 426.394531 205.871094 C 427.074219 206.003906 427.761719 206.066406 428.457031 206.0625 C 429.152344 206.058594 429.835938 205.984375 430.515625 205.84375 C 431.195312 205.703125 431.855469 205.496094 432.492188 205.222656 C 433.132812 204.949219 433.734375 204.617188 434.308594 204.222656 C 434.878906 203.832031 435.40625 203.386719 435.890625 202.890625 C 436.375 202.390625 436.800781 201.851562 437.179688 201.269531 C 437.554688 200.683594 437.867188 200.070312 438.121094 199.425781 C 438.375 198.78125 438.5625 198.117188 438.683594 197.433594 C 444.425781 166.902344 453.222656 137.277344 465.074219 108.554688 C 468.742188 100.058594 471.445312 91.261719 473.179688 82.171875 C 474.558594 75.394531 475.316406 68.546875 475.453125 61.632812 C 475.589844 54.71875 475.101562 47.847656 473.988281 41.023438 C 473.726562 39.640625 473.402344 38.269531 473.023438 36.914062 C 472.640625 35.558594 472.199219 34.222656 471.703125 32.902344 C 471.203125 31.585938 470.648438 30.292969 470.039062 29.023438 C 469.425781 27.753906 468.761719 26.511719 468.042969 25.300781 C 467.324219 24.089844 466.554688 22.910156 465.734375 21.765625 C 464.914062 20.621094 464.046875 19.515625 463.128906 18.445312 C 462.210938 17.375 461.25 16.347656 460.242188 15.359375 C 459.234375 14.375 458.1875 13.433594 457.101562 12.539062 C 456.011719 11.644531 454.886719 10.796875 453.726562 10 C 452.5625 9.203125 451.371094 8.457031 450.144531 7.761719 C 448.917969 7.066406 447.660156 6.425781 446.378906 5.84375 C 445.097656 5.257812 443.792969 4.726562 442.464844 4.257812 C 441.136719 3.785156 439.789062 3.371094 438.425781 3.015625 C 437.0625 2.660156 435.683594 2.363281 434.296875 2.128906 C 432.90625 1.890625 431.507812 1.71875 430.101562 1.601562 C 428.699219 1.488281 427.289062 1.433594 425.878906 1.441406 L 405.402344 1.441406 C 403.414062 1.429688 401.449219 1.652344 399.511719 2.109375 C 397.574219 2.566406 395.71875 3.242188 393.941406 4.140625 C 392.167969 5.042969 390.523438 6.136719 389.007812 7.429688 C 387.496094 8.71875 386.15625 10.171875 384.988281 11.785156 C 383.789062 13.441406 382.796875 15.21875 382.011719 17.109375 C 381.230469 19.003906 380.679688 20.960938 380.355469 22.984375 C 380.035156 25.003906 379.953125 27.035156 380.109375 29.078125 C 380.265625 31.121094 380.660156 33.113281 381.285156 35.0625 C 382.335938 38.351562 382.777344 41.714844 382.621094 45.160156 C 382.460938 48.605469 381.710938 51.914062 380.367188 55.089844 C 377.808594 52.40625 374.878906 50.210938 371.582031 48.515625 C 369.390625 47.378906 367.09375 46.527344 364.691406 45.957031 C 362.289062 45.386719 359.855469 45.117188 357.386719 45.144531 C 354.921875 45.171875 352.492188 45.5 350.105469 46.125 C 347.71875 46.75 345.441406 47.652344 343.277344 48.839844 C 342.160156 49.4375 341.089844 50.105469 340.058594 50.84375 C 339.03125 51.582031 338.054688 52.382812 337.132812 53.25 C 336.207031 54.113281 335.34375 55.035156 334.539062 56.015625 C 333.738281 56.992188 333 58.019531 332.332031 59.09375 C 331.660156 60.167969 331.0625 61.277344 330.539062 62.429688 C 330.015625 63.582031 329.566406 64.761719 329.195312 65.972656 C 328.828125 67.183594 328.535156 68.410156 328.328125 69.660156 C 328.117188 70.90625 327.988281 72.164062 327.941406 73.429688 C 327.75 76.4375 327.878906 79.433594 328.328125 82.414062 C 328.777344 85.394531 329.539062 88.296875 330.609375 91.117188 C 331.683594 93.933594 333.042969 96.605469 334.6875 99.132812 C 336.335938 101.660156 338.230469 103.988281 340.375 106.109375 C 342.714844 108.496094 345.246094 110.660156 347.972656 112.597656 C 345.097656 118.148438 342.25 123.96875 339.402344 129.941406 C 339.34375 130.066406 339.277344 130.1875 339.222656 130.3125 C 338.757812 131.296875 338.285156 132.242188 337.820312 133.234375 C 334.960938 131.089844 332.320312 128.699219 329.898438 126.070312 C 319.101562 114.578125 304.164062 113.226562 289.9375 122.449219 C 288.621094 123.351562 287.367188 124.335938 286.171875 125.394531 C 284.976562 126.453125 283.851562 127.582031 282.796875 128.78125 C 281.742188 129.980469 280.765625 131.242188 279.867188 132.5625 C 278.96875 133.882812 278.15625 135.253906 277.425781 136.671875 C 276.699219 138.09375 276.058594 139.554688 275.511719 141.054688 C 274.964844 142.554688 274.511719 144.082031 274.152344 145.636719 C 273.792969 147.195312 273.535156 148.765625 273.371094 150.351562 C 273.207031 151.941406 273.140625 153.535156 273.175781 155.128906 C 273.570312 167.851562 280.464844 178.621094 292.589844 185.460938 C 294.304688 186.34375 296.085938 187.054688 297.9375 187.589844 C 299.789062 188.128906 301.675781 188.484375 303.59375 188.65625 C 305.515625 188.828125 307.433594 188.816406 309.351562 188.617188 C 311.269531 188.421875 313.152344 188.039062 314.996094 187.476562 L 314.535156 188.738281 C 311.886719 196.164062 309.453125 203.65625 307.230469 211.203125 C 307.175781 211.34375 307.148438 211.488281 307.101562 211.632812 C 305.632812 216.597656 304.226562 221.558594 302.949219 226.523438 C 300.996094 225.042969 299.125 223.464844 297.335938 221.792969 C 285.105469 210.464844 269.230469 210.148438 254.867188 220.945312 C 253.539062 222 252.277344 223.136719 251.089844 224.347656 C 249.902344 225.5625 248.792969 226.84375 247.761719 228.195312 C 246.734375 229.542969 245.792969 230.953125 244.9375 232.421875 C 244.082031 233.886719 243.320312 235.402344 242.652344 236.960938 C 241.988281 238.523438 241.417969 240.121094 240.949219 241.75 C 240.480469 243.382812 240.113281 245.035156 239.847656 246.714844 C 239.585938 248.390625 239.425781 250.078125 239.371094 251.773438 C 239.3125 253.46875 239.363281 255.164062 239.519531 256.855469 C 240.875 270.289062 248.976562 281.191406 262.335938 287.554688 C 264.671875 288.679688 276.429688 293.546875 291.425781 285.703125 L 292.007812 285.832031 C 290.675781 299.277344 289.9375 313.554688 289.882812 326.984375 L 285.960938 327.058594 C 274.234375 314.125 261.125 314.464844 258.539062 314.691406 C 242.851562 315.859375 230.640625 323.527344 224.132812 336.285156 C 223.328125 337.898438 222.625 339.558594 222.023438 341.261719 C 221.425781 342.960938 220.933594 344.691406 220.546875 346.457031 C 220.160156 348.21875 219.886719 349.996094 219.722656 351.792969 C 219.558594 353.589844 219.503906 355.390625 219.5625 357.195312 C 219.621094 358.996094 219.789062 360.789062 220.070312 362.570312 C 220.351562 364.351562 220.742188 366.109375 221.242188 367.84375 C 221.742188 369.578125 222.34375 371.273438 223.054688 372.933594 C 223.761719 374.59375 224.570312 376.203125 225.480469 377.761719 C 235.503906 393.921875 251.277344 399.703125 267.679688 393.230469 C 273.363281 390.84375 279.277344 389.347656 285.414062 388.742188 C 288.550781 388.496094 291.6875 388.386719 294.613281 388.347656 C 296.265625 398.726562 298.34375 408.9375 300.824219 418.914062 L 300.824219 418.96875 C 301.574219 421.988281 302.359375 424.988281 303.175781 427.972656 L 297.332031 429.664062 C 295.328125 428.285156 293.199219 427.140625 290.9375 426.242188 C 288.679688 425.339844 286.347656 424.699219 283.945312 424.324219 C 281.542969 423.949219 279.125 423.84375 276.699219 424.011719 C 274.273438 424.175781 271.894531 424.613281 269.566406 425.316406 C 255.582031 430.203125 246.335938 440.175781 243.53125 453.398438 C 243.195312 455.066406 242.960938 456.746094 242.832031 458.4375 C 242.703125 460.132812 242.679688 461.828125 242.761719 463.527344 C 242.84375 465.222656 243.03125 466.910156 243.320312 468.582031 C 243.609375 470.257812 244.003906 471.90625 244.5 473.535156 C 244.992188 475.160156 245.585938 476.746094 246.28125 478.300781 C 246.972656 479.851562 247.757812 481.355469 248.636719 482.808594 C 249.515625 484.265625 250.480469 485.660156 251.53125 486.996094 C 252.582031 488.332031 253.710938 489.597656 254.921875 490.792969 C 268.035156 503.070312 283.867188 504.484375 297.277344 494.53125 C 301.707031 491.09375 306.546875 488.378906 311.792969 486.394531 C 316.097656 484.871094 320.503906 483.625 324.296875 482.671875 C 328.535156 491.4375 332.207031 500.429688 335.316406 509.65625 C 332.257812 510.796875 328.753906 512.007812 325.183594 513 C 320.222656 514.285156 315.1875 514.800781 310.070312 514.550781 C 294.160156 514.113281 282.671875 523.882812 279.214844 540.585938 C 278.933594 542.167969 278.75 543.761719 278.664062 545.367188 C 278.582031 546.96875 278.59375 548.574219 278.707031 550.179688 C 278.824219 551.78125 279.035156 553.371094 279.347656 554.949219 C 279.65625 556.523438 280.066406 558.078125 280.570312 559.601562 C 281.070312 561.128906 281.667969 562.621094 282.355469 564.070312 C 283.042969 565.523438 283.820312 566.929688 284.683594 568.285156 C 285.542969 569.644531 286.488281 570.941406 287.511719 572.183594 C 288.535156 573.421875 289.628906 574.59375 290.800781 575.699219 C 300.195312 584.414062 312.796875 587.097656 326.28125 583.257812 C 328.441406 582.535156 330.5 581.589844 332.453125 580.414062 C 334.40625 579.238281 336.207031 577.859375 337.855469 576.285156 C 339.503906 574.710938 340.957031 572.972656 342.21875 571.074219 C 343.476562 569.175781 344.515625 567.164062 345.328125 565.035156 L 348.207031 564.039062 C 350.136719 576.867188 351.457031 590.09375 352.128906 603.570312 C 350.960938 603.546875 349.828125 603.511719 348.730469 603.457031 C 343.617188 603.089844 338.675781 601.980469 333.898438 600.125 C 318.980469 594.710938 304.953125 600.28125 296.375 615.015625 C 295.601562 616.425781 294.921875 617.878906 294.332031 619.375 C 293.738281 620.871094 293.242188 622.394531 292.839844 623.953125 C 292.4375 625.507812 292.136719 627.082031 291.929688 628.675781 C 291.722656 630.273438 291.613281 631.871094 291.605469 633.480469 C 291.597656 635.085938 291.691406 636.6875 291.882812 638.285156 C 292.070312 639.882812 292.359375 641.460938 292.746094 643.019531 C 293.132812 644.582031 293.613281 646.109375 294.191406 647.613281 C 294.765625 649.113281 295.433594 650.570312 296.191406 651.988281 C 302.328125 663.238281 313.421875 669.78125 327.429688 670.417969 C 330.925781 670.449219 334.320312 669.882812 337.613281 668.714844 C 340.90625 667.546875 343.902344 665.851562 346.59375 663.628906 C 338.640625 692.589844 327.648438 748.722656 346.652344 792.335938 Z M 401.890625 24.105469 C 402.292969 23.535156 402.804688 23.09375 403.429688 22.78125 C 404.050781 22.46875 404.714844 22.320312 405.410156 22.339844 L 425.886719 22.339844 C 426.691406 22.332031 427.496094 22.359375 428.296875 22.421875 C 429.101562 22.484375 429.898438 22.582031 430.691406 22.714844 C 431.484375 22.847656 432.269531 23.011719 433.050781 23.210938 C 433.828125 23.410156 434.597656 23.644531 435.359375 23.910156 C 436.117188 24.179688 436.863281 24.476562 437.59375 24.808594 C 438.328125 25.140625 439.046875 25.503906 439.746094 25.894531 C 440.449219 26.289062 441.132812 26.714844 441.796875 27.164062 C 442.460938 27.617188 443.105469 28.101562 443.726562 28.609375 C 444.351562 29.117188 444.949219 29.652344 445.527344 30.210938 C 446.101562 30.773438 446.652344 31.359375 447.179688 31.964844 C 447.703125 32.574219 448.203125 33.203125 448.671875 33.855469 C 449.144531 34.507812 449.585938 35.179688 450 35.871094 C 450.410156 36.558594 450.792969 37.265625 451.144531 37.988281 C 451.496094 38.710938 451.8125 39.449219 452.101562 40.199219 C 452.386719 40.953125 452.640625 41.714844 452.863281 42.484375 C 453.082031 43.257812 453.269531 44.039062 453.421875 44.828125 C 455.191406 56.070312 454.921875 67.265625 452.609375 78.40625 C 452.371094 79.714844 452.0625 81.019531 451.757812 82.347656 C 436.273438 71.363281 419.808594 62.125 402.359375 54.632812 C 403.320312 50.339844 403.703125 45.992188 403.507812 41.597656 C 403.316406 37.203125 402.550781 32.90625 401.214844 28.714844 C 400.949219 27.9375 400.875 27.140625 400.992188 26.328125 C 401.113281 25.515625 401.410156 24.773438 401.890625 24.105469 Z M 348.8125 75.085938 C 349.273438 69.300781 351.882812 67.933594 352.996094 67.347656 C 353.675781 66.933594 354.402344 66.613281 355.167969 66.390625 C 355.933594 66.164062 356.71875 66.042969 357.515625 66.023438 C 358.3125 66.003906 359.101562 66.089844 359.878906 66.277344 C 360.65625 66.464844 361.394531 66.75 362.09375 67.132812 C 364.042969 68.1875 365.628906 69.636719 366.851562 71.484375 C 369.671875 75.730469 373.300781 79.105469 377.734375 81.617188 C 378.332031 81.941406 378.953125 82.207031 379.601562 82.410156 C 380.246094 82.617188 380.90625 82.753906 381.582031 82.832031 C 382.257812 82.90625 382.933594 82.917969 383.609375 82.859375 C 384.285156 82.804688 384.949219 82.683594 385.605469 82.5 C 386.257812 82.3125 386.886719 82.066406 387.492188 81.757812 C 388.097656 81.453125 388.664062 81.089844 389.199219 80.671875 C 389.734375 80.253906 390.222656 79.785156 390.667969 79.273438 C 391.109375 78.757812 391.5 78.207031 391.835938 77.617188 L 394.007812 73.808594 C 412.054688 81.566406 428.957031 91.3125 444.710938 103.039062 C 437.921875 119.652344 432.164062 136.613281 427.433594 153.921875 C 393.183594 152.398438 371.253906 138.988281 361.78125 131.699219 C 363.457031 128.292969 365.136719 124.964844 366.820312 121.722656 L 376.753906 125.671875 C 377.390625 125.925781 378.050781 126.113281 378.722656 126.238281 C 379.398438 126.363281 380.078125 126.417969 380.765625 126.40625 C 381.453125 126.398438 382.128906 126.320312 382.800781 126.175781 C 383.472656 126.035156 384.121094 125.824219 384.753906 125.554688 C 385.382812 125.28125 385.980469 124.953125 386.546875 124.5625 C 387.109375 124.171875 387.632812 123.734375 388.109375 123.242188 C 388.589844 122.75 389.015625 122.214844 389.386719 121.640625 C 389.761719 121.066406 390.074219 120.457031 390.328125 119.820312 C 390.582031 119.183594 390.769531 118.527344 390.894531 117.855469 C 391.019531 117.179688 391.078125 116.5 391.066406 115.816406 C 391.058594 115.128906 390.980469 114.453125 390.839844 113.78125 C 390.695312 113.109375 390.488281 112.460938 390.21875 111.832031 C 389.945312 111.199219 389.617188 110.601562 389.226562 110.039062 C 388.839844 109.472656 388.398438 108.953125 387.90625 108.472656 C 387.414062 107.996094 386.878906 107.570312 386.304688 107.195312 C 385.730469 106.820312 385.125 106.507812 384.484375 106.253906 L 366.070312 98.941406 C 362.003906 97.148438 358.421875 94.664062 355.324219 91.480469 C 354.226562 90.425781 353.253906 89.269531 352.40625 88.003906 C 351.554688 86.742188 350.851562 85.402344 350.289062 83.988281 C 349.726562 82.574219 349.320312 81.117188 349.066406 79.617188 C 348.816406 78.117188 348.730469 76.605469 348.800781 75.085938 Z M 291.867188 264.441406 C 290.5 264.148438 289.125 264.128906 287.746094 264.382812 C 286.371094 264.640625 285.09375 265.152344 283.921875 265.917969 C 277.21875 270.308594 272.613281 269.160156 271.519531 268.789062 L 271.363281 268.734375 C 264.660156 265.546875 260.949219 260.855469 260.339844 254.792969 C 260.199219 253.1875 260.253906 251.585938 260.5 249.992188 C 260.746094 248.398438 261.179688 246.855469 261.796875 245.367188 C 262.417969 243.875 263.207031 242.480469 264.160156 241.179688 C 265.117188 239.882812 266.214844 238.714844 267.453125 237.679688 C 273.726562 232.957031 278.421875 232.804688 283.125 237.15625 C 288.6875 242.476562 294.910156 246.855469 301.796875 250.292969 C 303.070312 250.90625 304.355469 251.492188 305.632812 252.0625 C 305.988281 252.21875 306.347656 252.355469 306.714844 252.46875 C 307.082031 252.585938 307.457031 252.683594 307.835938 252.757812 C 308.214844 252.832031 308.59375 252.886719 308.980469 252.921875 C 309.363281 252.953125 309.75 252.964844 310.136719 252.957031 C 310.519531 252.945312 310.90625 252.914062 311.289062 252.863281 C 311.671875 252.8125 312.046875 252.738281 312.421875 252.644531 C 312.796875 252.550781 313.164062 252.4375 313.527344 252.300781 C 313.886719 252.167969 314.242188 252.011719 314.585938 251.839844 C 314.929688 251.664062 315.265625 251.472656 315.589844 251.261719 C 315.910156 251.050781 316.222656 250.824219 316.519531 250.578125 C 316.816406 250.335938 317.101562 250.074219 317.371094 249.796875 C 317.640625 249.519531 317.894531 249.230469 318.128906 248.925781 C 318.367188 248.621094 318.585938 248.304688 318.789062 247.976562 C 318.992188 247.648438 319.175781 247.308594 319.339844 246.960938 C 319.503906 246.613281 319.648438 246.253906 319.773438 245.890625 C 319.898438 245.523438 320 245.15625 320.085938 244.777344 C 321.09375 240.25 322.207031 235.714844 323.382812 231.179688 C 336.207031 237.695312 358.640625 245.484375 392.625 245.484375 C 398.351562 245.484375 404.449219 245.222656 410.847656 244.742188 C 409.257812 261.871094 408.546875 279.039062 408.71875 296.238281 C 373.160156 311.964844 335.046875 310.894531 311.347656 307.824219 C 311.632812 302.167969 312.046875 296.527344 312.550781 290.992188 L 322.261719 293.667969 C 322.925781 293.859375 323.601562 293.984375 324.292969 294.042969 C 324.984375 294.101562 325.671875 294.09375 326.363281 294.015625 C 327.050781 293.9375 327.722656 293.792969 328.382812 293.582031 C 329.042969 293.367188 329.675781 293.09375 330.28125 292.757812 C 330.882812 292.417969 331.449219 292.027344 331.976562 291.574219 C 332.503906 291.125 332.980469 290.628906 333.410156 290.085938 C 333.835938 289.539062 334.207031 288.957031 334.519531 288.339844 C 334.832031 287.722656 335.078125 287.082031 335.261719 286.414062 C 335.445312 285.746094 335.5625 285.066406 335.613281 284.375 C 335.664062 283.6875 335.644531 282.996094 335.554688 282.3125 C 335.46875 281.625 335.3125 280.953125 335.09375 280.296875 C 334.871094 279.640625 334.585938 279.015625 334.242188 278.414062 C 333.894531 277.816406 333.492188 277.253906 333.035156 276.734375 C 332.578125 276.214844 332.074219 275.746094 331.523438 275.324219 C 330.972656 274.90625 330.386719 274.542969 329.765625 274.242188 C 329.140625 273.9375 328.496094 273.699219 327.824219 273.523438 L 306.234375 267.574219 C 306.140625 267.546875 306.050781 267.550781 305.957031 267.527344 C 305.863281 267.503906 305.765625 267.457031 305.664062 267.429688 Z M 283.792969 367.925781 C 275.5625 368.6875 267.632812 370.652344 260 373.820312 C 253.132812 376.519531 247.972656 374.359375 243.265625 366.765625 C 242.382812 365.167969 241.703125 363.484375 241.230469 361.722656 C 240.753906 359.957031 240.496094 358.164062 240.453125 356.335938 C 240.410156 354.511719 240.582031 352.707031 240.976562 350.925781 C 241.367188 349.140625 241.96875 347.429688 242.773438 345.789062 C 245.929688 339.605469 251.769531 336.15625 260.136719 335.542969 L 260.3125 335.542969 C 260.3125 335.542969 260.3125 335.542969 260.328125 335.542969 C 261.574219 335.5625 267.125 336.109375 272.53125 343.6875 C 273.027344 344.375 273.597656 344.996094 274.246094 345.546875 C 274.890625 346.097656 275.59375 346.566406 276.351562 346.945312 C 277.109375 347.328125 277.902344 347.613281 278.730469 347.800781 C 279.558594 347.992188 280.398438 348.078125 281.246094 348.066406 L 300.652344 347.695312 C 301.34375 347.679688 302.023438 347.601562 302.695312 347.453125 C 303.371094 347.304688 304.023438 347.09375 304.652344 346.816406 C 305.285156 346.539062 305.882812 346.203125 306.449219 345.808594 C 307.011719 345.414062 307.535156 344.96875 308.011719 344.46875 C 308.488281 343.972656 308.910156 343.433594 309.28125 342.851562 C 309.648438 342.269531 309.957031 341.65625 310.207031 341.015625 C 310.457031 340.375 310.640625 339.710938 310.757812 339.035156 C 310.875 338.355469 310.925781 337.671875 310.90625 336.984375 C 310.84375 334.3125 310.820312 331.566406 310.820312 328.792969 C 320.464844 329.957031 330.144531 330.542969 339.863281 330.554688 C 351.734375 330.671875 363.519531 329.71875 375.21875 327.695312 C 386.917969 325.671875 398.339844 322.613281 409.484375 318.519531 C 410.789062 341.878906 413.804688 365.019531 418.527344 387.933594 C 386.539062 412.882812 337.308594 409.628906 319.636719 407.460938 C 318.21875 401.210938 316.964844 394.875 315.875 388.460938 L 319.386719 388.460938 C 320.074219 388.460938 320.753906 388.394531 321.425781 388.261719 C 322.101562 388.125 322.753906 387.929688 323.390625 387.664062 C 324.023438 387.402344 324.625 387.082031 325.199219 386.699219 C 325.769531 386.320312 326.296875 385.886719 326.78125 385.402344 C 327.269531 384.914062 327.703125 384.386719 328.082031 383.816406 C 328.464844 383.246094 328.785156 382.644531 329.050781 382.011719 C 329.3125 381.375 329.511719 380.722656 329.644531 380.050781 C 329.777344 379.378906 329.84375 378.699219 329.84375 378.011719 C 329.84375 377.324219 329.777344 376.644531 329.644531 375.972656 C 329.511719 375.300781 329.3125 374.648438 329.050781 374.011719 C 328.785156 373.378906 328.464844 372.777344 328.082031 372.207031 C 327.703125 371.636719 327.269531 371.109375 326.78125 370.625 C 326.296875 370.136719 325.769531 369.703125 325.199219 369.324219 C 324.625 368.941406 324.023438 368.621094 323.390625 368.359375 C 322.753906 368.09375 322.101562 367.898438 321.425781 367.761719 C 320.753906 367.628906 320.074219 367.5625 319.386719 367.5625 L 303.855469 367.5625 C 297.160156 367.324219 290.472656 367.445312 283.792969 367.925781 Z M 304.816406 466.71875 C 297.589844 469.398438 290.921875 473.085938 284.8125 477.78125 C 279.644531 481.617188 274.992188 480.953125 269.246094 475.570312 C 268.125 474.402344 267.160156 473.121094 266.351562 471.722656 C 265.539062 470.324219 264.90625 468.851562 264.449219 467.300781 C 263.996094 465.75 263.730469 464.167969 263.660156 462.550781 C 263.585938 460.9375 263.703125 459.335938 264.015625 457.75 C 265.285156 451.78125 269.488281 447.507812 276.511719 445.054688 C 276.550781 445.054688 276.605469 445.03125 276.667969 445.015625 C 277.800781 444.753906 282.511719 444.105469 288.71875 449.195312 C 289.375 449.738281 290.085938 450.191406 290.851562 450.554688 C 291.621094 450.921875 292.421875 451.191406 293.253906 451.363281 C 294.085938 451.535156 294.925781 451.605469 295.777344 451.570312 C 296.625 451.539062 297.460938 451.402344 298.277344 451.167969 L 319.089844 445.140625 C 319.757812 444.949219 320.398438 444.691406 321.015625 444.371094 C 321.632812 444.050781 322.210938 443.671875 322.753906 443.234375 C 323.292969 442.796875 323.785156 442.3125 324.230469 441.777344 C 324.671875 441.242188 325.058594 440.667969 325.390625 440.058594 C 325.71875 439.445312 325.984375 438.808594 326.1875 438.140625 C 326.390625 437.476562 326.523438 436.800781 326.589844 436.109375 C 326.65625 435.417969 326.65625 434.726562 326.582031 434.035156 C 326.511719 433.34375 326.375 432.664062 326.167969 432.003906 C 325.871094 431.054688 325.625 430.070312 325.339844 429.128906 C 330.621094 429.578125 336.9375 429.914062 343.960938 429.914062 C 367.300781 429.914062 398.25 426.0625 423.746094 409.78125 C 425.257812 415.089844 427.003906 420.617188 429.082031 426.53125 C 432.246094 435.542969 436.882812 449.839844 441.566406 468.027344 C 410.84375 497.203125 364.960938 491.773438 349.9375 488.996094 C 348.378906 485.132812 346.742188 481.363281 345.035156 477.6875 C 346.988281 477.578125 348.921875 477.734375 350.832031 478.164062 L 356.8125 479.527344 C 357.484375 479.679688 358.160156 479.769531 358.847656 479.789062 C 359.535156 479.808594 360.21875 479.757812 360.894531 479.644531 C 361.570312 479.53125 362.230469 479.351562 362.875 479.105469 C 363.515625 478.863281 364.128906 478.558594 364.710938 478.191406 C 365.292969 477.828125 365.832031 477.410156 366.332031 476.9375 C 366.832031 476.464844 367.28125 475.949219 367.679688 475.390625 C 368.074219 474.828125 368.414062 474.238281 368.695312 473.609375 C 368.976562 472.984375 369.191406 472.335938 369.347656 471.664062 C 369.5 470.996094 369.585938 470.320312 369.605469 469.632812 C 369.621094 468.945312 369.574219 468.265625 369.460938 467.585938 C 369.34375 466.910156 369.164062 466.25 368.917969 465.609375 C 368.671875 464.96875 368.367188 464.359375 368 463.777344 C 367.636719 463.195312 367.214844 462.65625 366.742188 462.15625 C 366.269531 461.660156 365.753906 461.210938 365.191406 460.8125 C 364.632812 460.417969 364.039062 460.078125 363.410156 459.800781 C 362.78125 459.519531 362.132812 459.304688 361.464844 459.152344 L 355.484375 457.789062 C 351.921875 456.976562 348.316406 456.636719 344.664062 456.765625 C 341.015625 456.894531 337.441406 457.484375 333.945312 458.542969 L 327.34375 460.542969 C 319.699219 462.113281 312.183594 464.171875 304.804688 466.710938 Z M 320.5625 563.183594 L 320.695312 563.140625 Z M 448.019531 696.175781 C 447.417969 698.605469 446.585938 700.949219 445.523438 703.214844 C 444.457031 705.476562 443.183594 707.617188 441.699219 709.628906 C 440.214844 711.640625 438.546875 713.488281 436.695312 715.175781 C 434.847656 716.859375 432.851562 718.347656 430.707031 719.636719 C 427.804688 721.292969 424.992188 723.085938 422.269531 725.019531 C 419.550781 726.953125 416.929688 729.019531 414.414062 731.214844 C 411.898438 733.410156 409.5 735.726562 407.214844 738.164062 C 404.933594 740.597656 402.777344 743.140625 400.746094 745.792969 C 398.71875 748.445312 396.828125 751.191406 395.074219 754.03125 C 393.320312 756.871094 391.710938 759.792969 390.25 762.792969 C 388.789062 765.792969 387.480469 768.859375 386.324219 771.992188 C 385.167969 775.125 384.175781 778.304688 383.339844 781.535156 C 383.0625 782.535156 382.640625 783.46875 382.074219 784.335938 C 381.503906 785.207031 380.816406 785.964844 380.007812 786.617188 C 379.203125 787.269531 378.3125 787.78125 377.34375 788.152344 C 376.375 788.523438 375.371094 788.738281 374.335938 788.796875 C 373.464844 788.90625 372.59375 788.878906 371.730469 788.710938 C 370.867188 788.542969 370.054688 788.242188 369.289062 787.808594 C 368.523438 787.375 367.84375 786.832031 367.253906 786.179688 C 366.664062 785.527344 366.195312 784.800781 365.839844 783.992188 C 348.65625 744.546875 360.816406 690.054688 367.992188 665.210938 C 371.851562 667.628906 375.867188 669.765625 380.03125 671.617188 C 384.199219 673.464844 388.476562 675.015625 392.859375 676.257812 C 397.246094 677.503906 401.699219 678.433594 406.214844 679.046875 C 410.734375 679.660156 415.269531 679.949219 419.832031 679.921875 C 430.894531 679.867188 441.734375 678.277344 452.351562 675.160156 C 451.164062 682.242188 449.734375 689.277344 448.007812 696.175781 Z M 337.5 642.984375 C 333.375 649.121094 329.105469 649.542969 328.398438 649.570312 C 321.8125 649.261719 317.167969 646.722656 314.597656 642.015625 C 313.929688 640.746094 313.417969 639.417969 313.070312 638.03125 C 312.722656 636.640625 312.542969 635.230469 312.535156 633.796875 C 312.523438 632.363281 312.6875 630.953125 313.019531 629.558594 C 313.351562 628.164062 313.84375 626.832031 314.496094 625.554688 C 318.816406 618.136719 322.960938 618.402344 326.800781 619.808594 C 333.542969 622.382812 340.515625 623.902344 347.71875 624.367188 C 353.007812 624.605469 358.296875 624.574219 363.582031 624.269531 C 364.253906 624.230469 364.917969 624.132812 365.574219 623.96875 C 366.226562 623.800781 366.859375 623.578125 367.46875 623.289062 C 368.082031 623.003906 368.660156 622.660156 369.203125 622.261719 C 369.746094 621.863281 370.246094 621.414062 370.703125 620.921875 C 371.164062 620.425781 371.566406 619.890625 371.921875 619.316406 C 372.277344 618.742188 372.570312 618.140625 372.808594 617.507812 C 373.046875 616.878906 373.21875 616.230469 373.332031 615.566406 C 373.445312 614.902344 373.492188 614.230469 373.472656 613.558594 C 373.351562 608.953125 373.144531 604.375 372.882812 599.816406 C 377.328125 600.175781 382.679688 600.457031 388.644531 600.457031 C 409.039062 600.457031 436.492188 597.152344 458.601562 582.847656 C 459.492188 606.003906 458.457031 629.074219 455.488281 652.058594 C 442.167969 657.421875 403.542969 669.039062 369.652344 640.667969 C 369.519531 640.558594 369.367188 640.484375 369.230469 640.382812 C 368.582031 639.808594 367.875 639.324219 367.101562 638.929688 C 366.328125 638.539062 365.519531 638.25 364.671875 638.0625 C 363.824219 637.875 362.96875 637.800781 362.101562 637.832031 C 361.234375 637.867188 360.386719 638.007812 359.558594 638.261719 L 346.078125 638.375 C 345.226562 638.382812 344.390625 638.492188 343.570312 638.699219 C 342.746094 638.910156 341.960938 639.21875 341.214844 639.617188 C 340.464844 640.019531 339.777344 640.503906 339.148438 641.074219 C 338.515625 641.644531 337.964844 642.28125 337.492188 642.984375 Z M 337.5 642.984375 " fill-opacity="1" fill-rule="nonzero"/></g></svg>